<mxfile host="app.diagrams.net" agent="Mozilla/5.0 (Windows NT 10.0; Win64; x64) AppleWebKit/537.36 (KHTML, like Gecko) Chrome/133.0.0.0 Safari/537.36 Avast/133.0.0.0" version="26.1.3">
  <diagram name="Página-1" id="jRDmlUZ_uzFS9k0_tg6w">
    <mxGraphModel dx="2063" dy="1753" grid="1" gridSize="10" guides="1" tooltips="1" connect="1" arrows="1" fold="1" page="0" pageScale="1" pageWidth="827" pageHeight="1169" math="0" shadow="0">
      <root>
        <mxCell id="0" />
        <mxCell id="1" parent="0" />
        <mxCell id="he8v4BmozgQcFDsXWOUc-1" value="" style="rounded=0;whiteSpace=wrap;html=1;" vertex="1" parent="1">
          <mxGeometry x="-560" y="-280" width="160" height="80" as="geometry" />
        </mxCell>
        <mxCell id="he8v4BmozgQcFDsXWOUc-2" value="TIPO DE ACTIVIDAD" style="text;strokeColor=none;fillColor=none;html=1;align=center;verticalAlign=middle;whiteSpace=wrap;rounded=0;fontSize=16;" vertex="1" parent="1">
          <mxGeometry x="-625" y="-270" width="290" height="60" as="geometry" />
        </mxCell>
        <mxCell id="he8v4BmozgQcFDsXWOUc-95" style="edgeStyle=none;curved=1;rounded=0;orthogonalLoop=1;jettySize=auto;html=1;exitX=1;exitY=1;exitDx=0;exitDy=0;entryX=0.5;entryY=0;entryDx=0;entryDy=0;fontSize=12;startSize=8;endSize=8;endArrow=none;startFill=0;" edge="1" parent="1" source="he8v4BmozgQcFDsXWOUc-3" target="he8v4BmozgQcFDsXWOUc-91">
          <mxGeometry relative="1" as="geometry" />
        </mxCell>
        <mxCell id="he8v4BmozgQcFDsXWOUc-3" value="" style="rounded=0;whiteSpace=wrap;html=1;" vertex="1" parent="1">
          <mxGeometry x="-560" width="160" height="80" as="geometry" />
        </mxCell>
        <mxCell id="he8v4BmozgQcFDsXWOUc-103" value="" style="edgeStyle=none;curved=1;rounded=0;orthogonalLoop=1;jettySize=auto;html=1;fontSize=12;startSize=8;endSize=8;endArrow=none;startFill=0;" edge="1" parent="1" source="he8v4BmozgQcFDsXWOUc-4" target="he8v4BmozgQcFDsXWOUc-14">
          <mxGeometry relative="1" as="geometry" />
        </mxCell>
        <mxCell id="he8v4BmozgQcFDsXWOUc-4" value="ACTIVIDAD" style="text;strokeColor=none;fillColor=none;html=1;align=center;verticalAlign=middle;whiteSpace=wrap;rounded=0;fontSize=16;" vertex="1" parent="1">
          <mxGeometry x="-560" y="10" width="160" height="60" as="geometry" />
        </mxCell>
        <mxCell id="he8v4BmozgQcFDsXWOUc-5" value="" style="rounded=0;whiteSpace=wrap;html=1;" vertex="1" parent="1">
          <mxGeometry x="-80" width="160" height="80" as="geometry" />
        </mxCell>
        <mxCell id="he8v4BmozgQcFDsXWOUc-6" value="PRISIÓN" style="text;strokeColor=none;fillColor=none;html=1;align=center;verticalAlign=middle;whiteSpace=wrap;rounded=0;fontSize=16;" vertex="1" parent="1">
          <mxGeometry x="-80" y="10" width="160" height="60" as="geometry" />
        </mxCell>
        <mxCell id="he8v4BmozgQcFDsXWOUc-98" style="edgeStyle=none;curved=1;rounded=0;orthogonalLoop=1;jettySize=auto;html=1;entryX=0.5;entryY=0;entryDx=0;entryDy=0;fontSize=12;endArrow=none;startFill=0;shape=link;" edge="1" parent="1" source="he8v4BmozgQcFDsXWOUc-7" target="he8v4BmozgQcFDsXWOUc-3">
          <mxGeometry relative="1" as="geometry" />
        </mxCell>
        <mxCell id="he8v4BmozgQcFDsXWOUc-7" value="" style="rhombus;whiteSpace=wrap;html=1;" vertex="1" parent="1">
          <mxGeometry x="-560" y="-140" width="160" height="80" as="geometry" />
        </mxCell>
        <mxCell id="he8v4BmozgQcFDsXWOUc-8" value="PERTENECE" style="text;strokeColor=none;fillColor=none;html=1;align=center;verticalAlign=middle;whiteSpace=wrap;rounded=0;fontSize=16;" vertex="1" parent="1">
          <mxGeometry x="-510" y="-115" width="60" height="30" as="geometry" />
        </mxCell>
        <mxCell id="he8v4BmozgQcFDsXWOUc-10" value="" style="endArrow=none;html=1;rounded=0;fontSize=12;startSize=8;endSize=8;curved=1;entryX=0.5;entryY=1;entryDx=0;entryDy=0;exitX=0.5;exitY=0;exitDx=0;exitDy=0;" edge="1" parent="1" source="he8v4BmozgQcFDsXWOUc-7" target="he8v4BmozgQcFDsXWOUc-1">
          <mxGeometry width="50" height="50" relative="1" as="geometry">
            <mxPoint x="-320" as="sourcePoint" />
            <mxPoint x="-490" y="-190" as="targetPoint" />
          </mxGeometry>
        </mxCell>
        <mxCell id="he8v4BmozgQcFDsXWOUc-101" value="" style="edgeStyle=none;curved=1;rounded=0;orthogonalLoop=1;jettySize=auto;html=1;fontSize=12;startSize=8;endSize=8;endArrow=none;startFill=0;" edge="1" parent="1" source="he8v4BmozgQcFDsXWOUc-14" target="he8v4BmozgQcFDsXWOUc-6">
          <mxGeometry relative="1" as="geometry" />
        </mxCell>
        <mxCell id="he8v4BmozgQcFDsXWOUc-14" value="" style="rhombus;whiteSpace=wrap;html=1;" vertex="1" parent="1">
          <mxGeometry x="-320" width="160" height="80" as="geometry" />
        </mxCell>
        <mxCell id="he8v4BmozgQcFDsXWOUc-15" value="OFERTA" style="text;strokeColor=none;fillColor=none;html=1;align=center;verticalAlign=middle;whiteSpace=wrap;rounded=0;fontSize=16;" vertex="1" parent="1">
          <mxGeometry x="-320" y="10" width="160" height="60" as="geometry" />
        </mxCell>
        <mxCell id="he8v4BmozgQcFDsXWOUc-16" value="" style="rounded=0;whiteSpace=wrap;html=1;" vertex="1" parent="1">
          <mxGeometry x="400" y="-280" width="160" height="80" as="geometry" />
        </mxCell>
        <mxCell id="he8v4BmozgQcFDsXWOUc-17" value="" style="rounded=0;whiteSpace=wrap;html=1;" vertex="1" parent="1">
          <mxGeometry x="-80" y="-280" width="160" height="80" as="geometry" />
        </mxCell>
        <mxCell id="he8v4BmozgQcFDsXWOUc-20" value="" style="rhombus;whiteSpace=wrap;html=1;fontStyle=1" vertex="1" parent="1">
          <mxGeometry x="-80" y="-140" width="160" height="80" as="geometry" />
        </mxCell>
        <mxCell id="he8v4BmozgQcFDsXWOUc-22" value="" style="rounded=0;whiteSpace=wrap;html=1;" vertex="1" parent="1">
          <mxGeometry x="-70" y="-270" width="140" height="60" as="geometry" />
        </mxCell>
        <mxCell id="he8v4BmozgQcFDsXWOUc-23" value="MÓDULOS" style="text;strokeColor=none;fillColor=none;html=1;align=center;verticalAlign=middle;whiteSpace=wrap;rounded=0;fontSize=16;" vertex="1" parent="1">
          <mxGeometry x="-145" y="-270" width="290" height="60" as="geometry" />
        </mxCell>
        <mxCell id="he8v4BmozgQcFDsXWOUc-25" value="" style="rhombus;whiteSpace=wrap;html=1;" vertex="1" parent="1">
          <mxGeometry x="-60" y="-130" width="120" height="60" as="geometry" />
        </mxCell>
        <mxCell id="he8v4BmozgQcFDsXWOUc-26" value="TIENE" style="text;strokeColor=none;fillColor=none;html=1;align=center;verticalAlign=middle;whiteSpace=wrap;rounded=0;fontSize=16;" vertex="1" parent="1">
          <mxGeometry x="-145" y="-130" width="290" height="60" as="geometry" />
        </mxCell>
        <mxCell id="he8v4BmozgQcFDsXWOUc-31" value="" style="rhombus;whiteSpace=wrap;html=1;" vertex="1" parent="1">
          <mxGeometry x="160" y="-280" width="160" height="80" as="geometry" />
        </mxCell>
        <mxCell id="he8v4BmozgQcFDsXWOUc-33" value="" style="rhombus;whiteSpace=wrap;html=1;" vertex="1" parent="1">
          <mxGeometry x="180" y="-270" width="120" height="60" as="geometry" />
        </mxCell>
        <mxCell id="he8v4BmozgQcFDsXWOUc-34" value="FORMADO" style="text;strokeColor=none;fillColor=none;html=1;align=center;verticalAlign=middle;whiteSpace=wrap;rounded=0;fontSize=16;" vertex="1" parent="1">
          <mxGeometry x="95" y="-270" width="290" height="60" as="geometry" />
        </mxCell>
        <mxCell id="he8v4BmozgQcFDsXWOUc-36" value="" style="rounded=0;whiteSpace=wrap;html=1;" vertex="1" parent="1">
          <mxGeometry x="410" y="-270" width="140" height="60" as="geometry" />
        </mxCell>
        <mxCell id="he8v4BmozgQcFDsXWOUc-37" value="CELDA" style="text;strokeColor=none;fillColor=none;html=1;align=center;verticalAlign=middle;whiteSpace=wrap;rounded=0;fontSize=16;" vertex="1" parent="1">
          <mxGeometry x="335" y="-270" width="290" height="60" as="geometry" />
        </mxCell>
        <mxCell id="he8v4BmozgQcFDsXWOUc-38" value="" style="rounded=0;whiteSpace=wrap;html=1;" vertex="1" parent="1">
          <mxGeometry x="400" width="160" height="80" as="geometry" />
        </mxCell>
        <mxCell id="he8v4BmozgQcFDsXWOUc-39" value="" style="rounded=0;whiteSpace=wrap;html=1;" vertex="1" parent="1">
          <mxGeometry x="410" y="10" width="140" height="60" as="geometry" />
        </mxCell>
        <mxCell id="he8v4BmozgQcFDsXWOUc-40" value="ROTACIÓN" style="text;strokeColor=none;fillColor=none;html=1;align=center;verticalAlign=middle;whiteSpace=wrap;rounded=0;fontSize=16;" vertex="1" parent="1">
          <mxGeometry x="335" y="10" width="290" height="60" as="geometry" />
        </mxCell>
        <mxCell id="he8v4BmozgQcFDsXWOUc-41" value="" style="rhombus;whiteSpace=wrap;html=1;" vertex="1" parent="1">
          <mxGeometry x="400" y="-150" width="160" height="80" as="geometry" />
        </mxCell>
        <mxCell id="he8v4BmozgQcFDsXWOUc-44" value="EN" style="text;strokeColor=none;fillColor=none;html=1;align=center;verticalAlign=middle;whiteSpace=wrap;rounded=0;fontSize=16;" vertex="1" parent="1">
          <mxGeometry x="335" y="-140" width="290" height="60" as="geometry" />
        </mxCell>
        <mxCell id="he8v4BmozgQcFDsXWOUc-45" value="" style="rounded=0;whiteSpace=wrap;html=1;" vertex="1" parent="1">
          <mxGeometry x="-80" y="280" width="160" height="80" as="geometry" />
        </mxCell>
        <mxCell id="he8v4BmozgQcFDsXWOUc-46" value="" style="rounded=0;whiteSpace=wrap;html=1;" vertex="1" parent="1">
          <mxGeometry x="400" y="280" width="160" height="80" as="geometry" />
        </mxCell>
        <mxCell id="he8v4BmozgQcFDsXWOUc-47" value="" style="rhombus;whiteSpace=wrap;html=1;" vertex="1" parent="1">
          <mxGeometry x="400" y="140" width="160" height="80" as="geometry" />
        </mxCell>
        <mxCell id="he8v4BmozgQcFDsXWOUc-48" value="CONDENA" style="text;strokeColor=none;fillColor=none;html=1;align=center;verticalAlign=middle;whiteSpace=wrap;rounded=0;fontSize=16;" vertex="1" parent="1">
          <mxGeometry x="335" y="290" width="290" height="60" as="geometry" />
        </mxCell>
        <mxCell id="he8v4BmozgQcFDsXWOUc-49" value="" style="rhombus;whiteSpace=wrap;html=1;" vertex="1" parent="1">
          <mxGeometry x="420" y="150" width="120" height="60" as="geometry" />
        </mxCell>
        <mxCell id="he8v4BmozgQcFDsXWOUc-51" value="TIENE" style="text;strokeColor=none;fillColor=none;html=1;align=center;verticalAlign=middle;whiteSpace=wrap;rounded=0;fontSize=16;" vertex="1" parent="1">
          <mxGeometry x="335" y="150" width="290" height="60" as="geometry" />
        </mxCell>
        <mxCell id="he8v4BmozgQcFDsXWOUc-52" value="RECLUSO" style="text;strokeColor=none;fillColor=none;html=1;align=center;verticalAlign=middle;whiteSpace=wrap;rounded=0;fontSize=16;" vertex="1" parent="1">
          <mxGeometry x="-145" y="290" width="290" height="60" as="geometry" />
        </mxCell>
        <mxCell id="he8v4BmozgQcFDsXWOUc-53" value="" style="rhombus;whiteSpace=wrap;html=1;" vertex="1" parent="1">
          <mxGeometry x="160" y="280" width="160" height="80" as="geometry" />
        </mxCell>
        <mxCell id="he8v4BmozgQcFDsXWOUc-54" value="CUMPLE" style="text;strokeColor=none;fillColor=none;html=1;align=center;verticalAlign=middle;whiteSpace=wrap;rounded=0;fontSize=16;" vertex="1" parent="1">
          <mxGeometry x="95" y="290" width="290" height="60" as="geometry" />
        </mxCell>
        <mxCell id="he8v4BmozgQcFDsXWOUc-55" value="" style="rounded=0;whiteSpace=wrap;html=1;" vertex="1" parent="1">
          <mxGeometry x="880" y="-280" width="160" height="80" as="geometry" />
        </mxCell>
        <mxCell id="he8v4BmozgQcFDsXWOUc-56" value="MOBILIARIO" style="text;strokeColor=none;fillColor=none;html=1;align=center;verticalAlign=middle;whiteSpace=wrap;rounded=0;fontSize=16;" vertex="1" parent="1">
          <mxGeometry x="815" y="-270" width="290" height="60" as="geometry" />
        </mxCell>
        <mxCell id="he8v4BmozgQcFDsXWOUc-58" value="" style="rhombus;whiteSpace=wrap;html=1;" vertex="1" parent="1">
          <mxGeometry x="640" y="-280" width="160" height="80" as="geometry" />
        </mxCell>
        <mxCell id="he8v4BmozgQcFDsXWOUc-59" value="TIENE" style="text;strokeColor=none;fillColor=none;html=1;align=center;verticalAlign=middle;whiteSpace=wrap;rounded=0;fontSize=16;" vertex="1" parent="1">
          <mxGeometry x="575" y="-270" width="290" height="60" as="geometry" />
        </mxCell>
        <mxCell id="he8v4BmozgQcFDsXWOUc-77" style="edgeStyle=none;curved=1;rounded=0;orthogonalLoop=1;jettySize=auto;html=1;entryX=0;entryY=0;entryDx=0;entryDy=0;fontSize=12;startSize=8;endSize=8;exitX=0.5;exitY=1;exitDx=0;exitDy=0;endArrow=none;startFill=0;" edge="1" parent="1" source="he8v4BmozgQcFDsXWOUc-60" target="he8v4BmozgQcFDsXWOUc-1">
          <mxGeometry relative="1" as="geometry" />
        </mxCell>
        <mxCell id="he8v4BmozgQcFDsXWOUc-60" value="" style="ellipse;whiteSpace=wrap;html=1;fontStyle=0" vertex="1" parent="1">
          <mxGeometry x="-630" y="-390" width="70" height="50" as="geometry" />
        </mxCell>
        <mxCell id="he8v4BmozgQcFDsXWOUc-63" value="&lt;u&gt;COD&lt;/u&gt;" style="text;strokeColor=none;fillColor=none;html=1;align=center;verticalAlign=middle;whiteSpace=wrap;rounded=0;fontSize=16;" vertex="1" parent="1">
          <mxGeometry x="-740" y="-395" width="290" height="60" as="geometry" />
        </mxCell>
        <mxCell id="he8v4BmozgQcFDsXWOUc-79" style="edgeStyle=none;curved=1;rounded=0;orthogonalLoop=1;jettySize=auto;html=1;exitX=0.5;exitY=1;exitDx=0;exitDy=0;entryX=1;entryY=0;entryDx=0;entryDy=0;fontSize=12;startSize=8;endSize=8;endArrow=none;startFill=0;" edge="1" parent="1" source="he8v4BmozgQcFDsXWOUc-65" target="he8v4BmozgQcFDsXWOUc-1">
          <mxGeometry relative="1" as="geometry" />
        </mxCell>
        <mxCell id="he8v4BmozgQcFDsXWOUc-65" value="" style="ellipse;whiteSpace=wrap;html=1;" vertex="1" parent="1">
          <mxGeometry x="-400" y="-390" width="150" height="50" as="geometry" />
        </mxCell>
        <mxCell id="he8v4BmozgQcFDsXWOUc-78" style="edgeStyle=none;curved=1;rounded=0;orthogonalLoop=1;jettySize=auto;html=1;fontSize=12;startSize=8;endSize=8;endArrow=none;startFill=0;" edge="1" parent="1" source="he8v4BmozgQcFDsXWOUc-66">
          <mxGeometry relative="1" as="geometry">
            <mxPoint x="-480" y="-280" as="targetPoint" />
          </mxGeometry>
        </mxCell>
        <mxCell id="he8v4BmozgQcFDsXWOUc-66" value="" style="ellipse;whiteSpace=wrap;html=1;" vertex="1" parent="1">
          <mxGeometry x="-515" y="-430" width="70" height="50" as="geometry" />
        </mxCell>
        <mxCell id="he8v4BmozgQcFDsXWOUc-67" value="AREA" style="text;strokeColor=none;fillColor=none;html=1;align=center;verticalAlign=middle;whiteSpace=wrap;rounded=0;fontSize=16;" vertex="1" parent="1">
          <mxGeometry x="-625" y="-435" width="290" height="60" as="geometry" />
        </mxCell>
        <mxCell id="he8v4BmozgQcFDsXWOUc-68" value="" style="ellipse;whiteSpace=wrap;html=1;" vertex="1" parent="1">
          <mxGeometry x="-320" y="-530" width="70" height="50" as="geometry" />
        </mxCell>
        <mxCell id="he8v4BmozgQcFDsXWOUc-71" value="" style="ellipse;whiteSpace=wrap;html=1;" vertex="1" parent="1">
          <mxGeometry x="-390" y="-380" width="130" height="30" as="geometry" />
        </mxCell>
        <mxCell id="he8v4BmozgQcFDsXWOUc-72" value="REQUISITOS" style="text;strokeColor=none;fillColor=none;html=1;align=center;verticalAlign=middle;whiteSpace=wrap;rounded=0;fontSize=16;" vertex="1" parent="1">
          <mxGeometry x="-470" y="-395" width="290" height="60" as="geometry" />
        </mxCell>
        <mxCell id="he8v4BmozgQcFDsXWOUc-93" style="edgeStyle=none;curved=1;rounded=0;orthogonalLoop=1;jettySize=auto;html=1;entryX=0;entryY=1;entryDx=0;entryDy=0;fontSize=12;startSize=8;endSize=8;endArrow=none;startFill=0;" edge="1" parent="1" source="he8v4BmozgQcFDsXWOUc-80" target="he8v4BmozgQcFDsXWOUc-3">
          <mxGeometry relative="1" as="geometry" />
        </mxCell>
        <mxCell id="he8v4BmozgQcFDsXWOUc-80" value="" style="ellipse;whiteSpace=wrap;html=1;fontStyle=0" vertex="1" parent="1">
          <mxGeometry x="-630" y="135" width="70" height="50" as="geometry" />
        </mxCell>
        <mxCell id="he8v4BmozgQcFDsXWOUc-94" style="edgeStyle=none;curved=1;rounded=0;orthogonalLoop=1;jettySize=auto;html=1;fontSize=12;startSize=8;endSize=8;endArrow=none;startFill=0;" edge="1" parent="1" source="he8v4BmozgQcFDsXWOUc-81" target="he8v4BmozgQcFDsXWOUc-3">
          <mxGeometry relative="1" as="geometry" />
        </mxCell>
        <mxCell id="he8v4BmozgQcFDsXWOUc-81" value="" style="ellipse;whiteSpace=wrap;html=1;" vertex="1" parent="1">
          <mxGeometry x="-520" y="135" width="80" height="50" as="geometry" />
        </mxCell>
        <mxCell id="he8v4BmozgQcFDsXWOUc-82" value="&lt;u&gt;ID&lt;/u&gt;" style="text;strokeColor=none;fillColor=none;html=1;align=center;verticalAlign=middle;whiteSpace=wrap;rounded=0;fontSize=16;" vertex="1" parent="1">
          <mxGeometry x="-740" y="130" width="290" height="60" as="geometry" />
        </mxCell>
        <mxCell id="he8v4BmozgQcFDsXWOUc-91" value="" style="ellipse;whiteSpace=wrap;html=1;" vertex="1" parent="1">
          <mxGeometry x="-400" y="135" width="150" height="50" as="geometry" />
        </mxCell>
        <mxCell id="he8v4BmozgQcFDsXWOUc-92" value="NOMBRE" style="text;strokeColor=none;fillColor=none;html=1;align=center;verticalAlign=middle;whiteSpace=wrap;rounded=0;fontSize=16;" vertex="1" parent="1">
          <mxGeometry x="-625" y="130" width="290" height="60" as="geometry" />
        </mxCell>
        <mxCell id="he8v4BmozgQcFDsXWOUc-97" value="DESCRIPCIÓN" style="text;strokeColor=none;fillColor=none;html=1;align=center;verticalAlign=middle;whiteSpace=wrap;rounded=0;fontSize=16;" vertex="1" parent="1">
          <mxGeometry x="-470" y="130" width="290" height="60" as="geometry" />
        </mxCell>
        <mxCell id="he8v4BmozgQcFDsXWOUc-99" style="edgeStyle=none;curved=1;rounded=0;orthogonalLoop=1;jettySize=auto;html=1;exitX=0;exitY=0.5;exitDx=0;exitDy=0;fontSize=12;startSize=8;endSize=8;" edge="1" parent="1" source="he8v4BmozgQcFDsXWOUc-6" target="he8v4BmozgQcFDsXWOUc-6">
          <mxGeometry relative="1" as="geometry" />
        </mxCell>
        <mxCell id="he8v4BmozgQcFDsXWOUc-102" style="edgeStyle=none;curved=1;rounded=0;orthogonalLoop=1;jettySize=auto;html=1;exitX=1;exitY=0.5;exitDx=0;exitDy=0;fontSize=12;startSize=8;endSize=8;" edge="1" parent="1" source="he8v4BmozgQcFDsXWOUc-4" target="he8v4BmozgQcFDsXWOUc-4">
          <mxGeometry relative="1" as="geometry" />
        </mxCell>
        <mxCell id="he8v4BmozgQcFDsXWOUc-104" style="edgeStyle=none;curved=1;rounded=0;orthogonalLoop=1;jettySize=auto;html=1;exitX=0;exitY=0.5;exitDx=0;exitDy=0;fontSize=12;startSize=8;endSize=8;" edge="1" parent="1" source="he8v4BmozgQcFDsXWOUc-15" target="he8v4BmozgQcFDsXWOUc-15">
          <mxGeometry relative="1" as="geometry" />
        </mxCell>
      </root>
    </mxGraphModel>
  </diagram>
</mxfile>
